<?xml version="1.0" standalone="no"?><!DOCTYPE svg PUBLIC "-//W3C//DTD SVG 1.1//EN" "http://www.w3.org/Graphics/SVG/1.1/DTD/svg11.dtd"><svg t="1763952482871" class="icon" viewBox="0 0 1024 1024" version="1.1" xmlns="http://www.w3.org/2000/svg" p-id="11006" xmlns:xlink="http://www.w3.org/1999/xlink" width="256" height="256"><path d="M230 127c0-36 31.72-60 78.3-60h634.4c48.58 0 80.3 24 80.3 60s-31.72 60-79.3 60H309.3c-47.58 0-79.3-24-79.3-60z m713.7 324.33H309.31c-47.58 0-79.3 24-79.3 60s31.72 60 79.3 60H943.7c47.58 0 79.3-24 79.3-60s-31.72-60-79.3-60z m0 390.67H309.31c-47.58 0-79.3 24-79.3 60s31.72 60 79.3 60H943.7c47.58 0 79.3-24 79.3-60s-31.72-60-79.3-60zM63 68C29.86 68 3 94.86 3 128s26.86 60 60 60 60-26.86 60-60-26.86-60-60-60z m0 384c-33.14 0-60 26.86-60 60s26.86 60 60 60 60-26.86 60-60-26.86-60-60-60z m-1 390c-33.14 0-60 26.86-60 60s26.86 60 60 60 60-26.86 60-60-26.86-60-60-60z" p-id="11007" fill="#ffffff"></path></svg>